<mxfile host="app.diagrams.net" modified="2022-04-22T03:55:12.841Z" agent="5.0 (Macintosh; Intel Mac OS X 10_15_7) AppleWebKit/537.36 (KHTML, like Gecko) Chrome/100.0.4896.88 Safari/537.36" etag="iPCtRWNQQl4thjUfM-pX" version="17.4.6" type="github">
  <diagram id="-BizO-9eWnyVQ55fjSq1" name="Page-1">
    <mxGraphModel dx="1052" dy="769" grid="1" gridSize="10" guides="1" tooltips="1" connect="1" arrows="1" fold="1" page="1" pageScale="1" pageWidth="827" pageHeight="1169" math="0" shadow="0">
      <root>
        <mxCell id="0" />
        <mxCell id="1" parent="0" />
        <mxCell id="olQ4l3eizmxSAm_XHt5j-1" value="&lt;h1&gt;Heading&lt;/h1&gt;&lt;p&gt;Lorem ipsum dolor sit amet, consectetur adipisicing elit, sed do eiusmod tempor incididunt ut labore et dolore magna aliqua.&lt;/p&gt;" style="text;html=1;strokeColor=none;fillColor=none;spacing=5;spacingTop=-20;whiteSpace=wrap;overflow=hidden;rounded=0;" vertex="1" parent="1">
          <mxGeometry x="90" y="40" width="290" height="130" as="geometry" />
        </mxCell>
        <mxCell id="olQ4l3eizmxSAm_XHt5j-2" value="List" style="swimlane;fontStyle=0;childLayout=stackLayout;horizontal=1;startSize=30;horizontalStack=0;resizeParent=1;resizeParentMax=0;resizeLast=0;collapsible=1;marginBottom=0;" vertex="1" parent="1">
          <mxGeometry x="150" y="180" width="140" height="120" as="geometry" />
        </mxCell>
        <mxCell id="olQ4l3eizmxSAm_XHt5j-3" value="Item 1" style="text;strokeColor=none;fillColor=none;align=left;verticalAlign=middle;spacingLeft=4;spacingRight=4;overflow=hidden;points=[[0,0.5],[1,0.5]];portConstraint=eastwest;rotatable=0;" vertex="1" parent="olQ4l3eizmxSAm_XHt5j-2">
          <mxGeometry y="30" width="140" height="30" as="geometry" />
        </mxCell>
        <mxCell id="olQ4l3eizmxSAm_XHt5j-4" value="Item 2" style="text;strokeColor=none;fillColor=none;align=left;verticalAlign=middle;spacingLeft=4;spacingRight=4;overflow=hidden;points=[[0,0.5],[1,0.5]];portConstraint=eastwest;rotatable=0;" vertex="1" parent="olQ4l3eizmxSAm_XHt5j-2">
          <mxGeometry y="60" width="140" height="30" as="geometry" />
        </mxCell>
        <mxCell id="olQ4l3eizmxSAm_XHt5j-5" value="Item 3" style="text;strokeColor=none;fillColor=none;align=left;verticalAlign=middle;spacingLeft=4;spacingRight=4;overflow=hidden;points=[[0,0.5],[1,0.5]];portConstraint=eastwest;rotatable=0;" vertex="1" parent="olQ4l3eizmxSAm_XHt5j-2">
          <mxGeometry y="90" width="140" height="30" as="geometry" />
        </mxCell>
        <mxCell id="olQ4l3eizmxSAm_XHt5j-7" value="List" style="swimlane;fontStyle=0;childLayout=stackLayout;horizontal=1;startSize=30;horizontalStack=0;resizeParent=1;resizeParentMax=0;resizeLast=0;collapsible=1;marginBottom=0;" vertex="1" parent="1">
          <mxGeometry x="414" y="180" width="140" height="120" as="geometry" />
        </mxCell>
        <mxCell id="olQ4l3eizmxSAm_XHt5j-8" value="Item 1" style="text;strokeColor=none;fillColor=none;align=left;verticalAlign=middle;spacingLeft=4;spacingRight=4;overflow=hidden;points=[[0,0.5],[1,0.5]];portConstraint=eastwest;rotatable=0;" vertex="1" parent="olQ4l3eizmxSAm_XHt5j-7">
          <mxGeometry y="30" width="140" height="30" as="geometry" />
        </mxCell>
        <mxCell id="olQ4l3eizmxSAm_XHt5j-9" value="Item 2" style="text;strokeColor=none;fillColor=none;align=left;verticalAlign=middle;spacingLeft=4;spacingRight=4;overflow=hidden;points=[[0,0.5],[1,0.5]];portConstraint=eastwest;rotatable=0;" vertex="1" parent="olQ4l3eizmxSAm_XHt5j-7">
          <mxGeometry y="60" width="140" height="30" as="geometry" />
        </mxCell>
        <mxCell id="olQ4l3eizmxSAm_XHt5j-10" value="Item 3" style="text;strokeColor=none;fillColor=none;align=left;verticalAlign=middle;spacingLeft=4;spacingRight=4;overflow=hidden;points=[[0,0.5],[1,0.5]];portConstraint=eastwest;rotatable=0;" vertex="1" parent="olQ4l3eizmxSAm_XHt5j-7">
          <mxGeometry y="90" width="140" height="30" as="geometry" />
        </mxCell>
        <mxCell id="olQ4l3eizmxSAm_XHt5j-11" style="edgeStyle=none;rounded=0;orthogonalLoop=1;jettySize=auto;html=1;exitX=1;exitY=0.5;exitDx=0;exitDy=0;entryX=0;entryY=0.5;entryDx=0;entryDy=0;" edge="1" parent="1" source="olQ4l3eizmxSAm_XHt5j-3" target="olQ4l3eizmxSAm_XHt5j-8">
          <mxGeometry relative="1" as="geometry" />
        </mxCell>
        <mxCell id="olQ4l3eizmxSAm_XHt5j-12" value="Pool" style="swimlane;childLayout=stackLayout;resizeParent=1;resizeParentMax=0;horizontal=1;startSize=20;horizontalStack=0;" vertex="1" parent="1">
          <mxGeometry x="150" y="350" width="480" height="380" as="geometry" />
        </mxCell>
        <mxCell id="olQ4l3eizmxSAm_XHt5j-13" value="Lane 1" style="swimlane;startSize=20;horizontal=0;" vertex="1" parent="olQ4l3eizmxSAm_XHt5j-12">
          <mxGeometry y="20" width="480" height="120" as="geometry" />
        </mxCell>
        <mxCell id="olQ4l3eizmxSAm_XHt5j-14" value="Lane 2" style="swimlane;startSize=20;horizontal=0;" vertex="1" parent="olQ4l3eizmxSAm_XHt5j-12">
          <mxGeometry y="140" width="480" height="120" as="geometry" />
        </mxCell>
        <mxCell id="olQ4l3eizmxSAm_XHt5j-15" value="Lane 3" style="swimlane;startSize=20;horizontal=0;" vertex="1" parent="olQ4l3eizmxSAm_XHt5j-12">
          <mxGeometry y="260" width="480" height="120" as="geometry" />
        </mxCell>
      </root>
    </mxGraphModel>
  </diagram>
</mxfile>
